<?xml version="1.0" encoding="UTF-8"?>
<svg version="1.1" xmlns="http://www.w3.org/2000/svg" width="888" height="255">
<path d="M0 0 C14.19 0 28.38 0 43 0 C44.26120206 3.78360619 45.27929209 6.91262252 45.96142578 10.73266602 C46.12144073 11.61700821 46.28145569 12.5013504 46.44631958 13.41249084 C46.61098724 14.35015793 46.77565491 15.28782501 46.9453125 16.25390625 C47.12005096 17.23238022 47.29478943 18.21085419 47.474823 19.21897888 C47.84171493 21.28027678 48.20634532 23.34197835 48.56884766 25.40405273 C49.12392402 28.55638942 49.688416 31.70693862 50.25390625 34.85742188 C50.60994075 36.86448306 50.96542815 38.87164138 51.3203125 40.87890625 C51.48902863 41.81859756 51.65774475 42.75828888 51.83157349 43.72645569 C51.98528412 44.60764572 52.13899475 45.48883575 52.29736328 46.39672852 C52.43345001 47.16694839 52.56953674 47.93716827 52.70974731 48.73072815 C53.02250655 51.17596215 53.04888181 53.53748129 53 56 C53.66 56 54.32 56 55 56 C55.12511963 55.28104553 55.25023926 54.56209106 55.37915039 53.8213501 C55.99826308 51.00789315 56.86350362 48.53048368 57.93359375 45.85839844 C58.33070557 44.86096619 58.72781738 43.86353394 59.13696289 42.83587646 C59.56614014 41.77113098 59.99531738 40.7063855 60.4375 39.609375 C60.87763428 38.50901917 61.31776855 37.40866333 61.77124023 36.27496338 C62.70057896 33.9542937 63.63202519 31.63446704 64.56542969 29.31542969 C65.99942001 25.75144148 67.42599257 22.18455098 68.8515625 18.6171875 C69.75477172 16.36440823 70.65840292 14.11179809 71.5625 11.859375 C71.99167725 10.78653259 72.42085449 9.71369019 72.86303711 8.6083374 C73.45870483 7.13110199 73.45870483 7.13110199 74.06640625 5.62402344 C74.41646729 4.75308044 74.76652832 3.88213745 75.12719727 2.98480225 C76 1 76 1 77 0 C79.44830426 -0.08843793 81.86820599 -0.11528752 84.31640625 -0.09765625 C85.41298805 -0.09553383 85.41298805 -0.09553383 86.53172302 -0.09336853 C88.87535632 -0.08775408 91.21889539 -0.07519922 93.5625 -0.0625 C95.14778508 -0.05748686 96.73307166 -0.05292363 98.31835938 -0.04882812 C102.2122761 -0.03777997 106.10612205 -0.02050572 110 0 C110.17128418 1.23975586 110.34256836 2.47951172 110.51904297 3.75683594 C111.16222532 8.40892427 111.80760707 13.06070538 112.45361328 17.71240234 C112.73154605 19.71590145 113.00890264 21.71948058 113.28564453 23.72314453 C114.72927895 34.17255612 116.17779641 44.60875169 118 55 C118.33706467 54.25403313 118.33706467 54.25403313 118.68093872 53.49299622 C121.04936558 48.25164122 123.41852582 43.01061815 125.78808594 37.76977539 C126.66880265 35.82161586 127.54934095 33.87337566 128.4296875 31.92504883 C129.70524348 29.10215648 130.98147073 26.27956839 132.2578125 23.45703125 C132.64244659 22.60542923 133.02708069 21.75382721 133.42337036 20.87641907 C136.57925816 13.90008094 139.79098236 6.95287155 143 0 C157.19 0 171.38 0 186 0 C184.50345237 4.48964288 183.03227995 8.12620055 180.875 12.26171875 C180.42064323 13.13699471 180.42064323 13.13699471 179.95710754 14.029953 C178.9756272 15.91803581 177.98792913 17.80278472 177 19.6875 C176.31435002 21.00323707 175.62905004 22.31915659 174.9440918 23.63525391 C172.96893669 27.42676562 170.98586378 31.21408821 169 35 C168.50838379 35.93763184 168.01676758 36.87526367 167.51025391 37.84130859 C165.49501197 41.68076354 163.47387377 45.51706444 161.44921875 49.3515625 C158.65771096 54.64229752 155.89095993 59.94587553 153.125 65.25 C152.62637451 66.20527588 152.12774902 67.16055176 151.61401367 68.14477539 C148.99414817 73.16614921 146.38225085 78.19148299 143.78125 83.22265625 C143.25257324 84.24262695 142.72389648 85.26259766 142.17919922 86.31347656 C141.17818798 88.24505401 140.17962161 90.17790145 139.18408203 92.11230469 C138.26451808 93.88448498 137.32192783 95.6449325 136.35522461 97.3918457 C134.93314087 99.99025371 134.93314087 99.99025371 133.95922852 102.86401367 C132.62643063 106.01925991 131.64671591 107.80034156 129 110 C122.858496 111.28143639 116.9223888 110.98726005 110.6875 110.6875 C108.98903672 110.64588449 107.29045795 110.60872832 105.59179688 110.57617188 C93.27851986 110.27851986 93.27851986 110.27851986 92 109 C91.70032724 107.256136 91.45998143 105.5020309 91.24389648 103.74584961 C91.10382675 102.62476303 90.96375702 101.50367645 90.81944275 100.34861755 C90.67148758 99.1288472 90.52353241 97.90907684 90.37109375 96.65234375 C90.1401577 94.7899984 90.1401577 94.7899984 89.90455627 92.89002991 C89.49542401 89.58433732 89.09002719 86.2782293 88.68640137 82.97186279 C88.27385863 79.59999869 87.85645568 76.2287368 87.43945312 72.85742188 C86.62180066 66.2388296 85.80906429 59.61964728 85 53 C84.74135162 53.65510559 84.48270325 54.31021118 84.21621704 54.98516846 C81.77576351 61.16541865 79.33357441 67.3449798 76.88944435 73.52377701 C75.63302273 76.70020781 74.37726852 79.87689904 73.12304688 83.05419922 C71.68038034 86.70879776 70.23479761 90.36223922 68.7890625 94.015625 C68.34003571 95.15429016 67.89100891 96.29295532 67.42837524 97.46612549 C67.00809052 98.52692322 66.58780579 99.58772095 66.15478516 100.68066406 C65.78616364 101.61332092 65.41754211 102.54597778 65.03775024 103.50689697 C64.11948975 105.71293647 63.06862646 107.86274707 62 110 C49.79 110 37.58 110 25 110 C20.40347021 92.76301328 20.40347021 92.76301328 18.61816406 84.79174805 C18.31005043 83.43265823 18.31005043 83.43265823 17.99571228 82.04611206 C17.33282403 79.1186186 16.67408188 76.1902118 16.015625 73.26171875 C15.55070957 71.20282205 15.08559782 69.14396968 14.62030029 67.0851593 C13.65370954 62.80531557 12.68912433 58.52502656 11.72607422 54.24438477 C10.48987801 48.75017941 9.2491037 43.25701993 8.0069313 37.76416302 C7.04967957 33.52934358 6.09453447 29.29405128 5.14006805 25.05860329 C4.68292982 23.03100083 4.2251937 21.00353307 3.76685333 18.97620201 C3.13054641 16.15997875 2.49700979 13.34314685 1.86425781 10.52612305 C1.67417648 9.68726059 1.48409515 8.84839813 1.28825378 7.9841156 C0 2.22870338 0 2.22870338 0 0 Z " fill="#000000" transform="translate(476,90)"/>
<path d="M0 0 C34.65 0 69.3 0 105 0 C104.02129963 11.74440439 102.01927511 23.38916812 100 35 C80.86 35 61.72 35 42 35 C41.67 38.63 41.34 42.26 41 46 C40.01 51.61 39.02 57.22 38 63 C52.19 63.33 66.38 63.66 81 64 C80 76 80 76 76 98 C61.15 98 46.3 98 31 98 C30.67 101.3 30.34 104.6 30 108 C29.68955818 110.09103508 29.3544638 112.17870342 28.984375 114.26000977 C28.7874707 115.37718887 28.59056641 116.49436798 28.38769531 117.645401 C28.17725586 118.81558273 27.96681641 119.98576447 27.75 121.19140625 C27.53182617 122.41786362 27.31365234 123.64432098 27.08886719 124.90794373 C26.51345218 128.13509635 25.9343412 131.36155956 25.35400391 134.58782959 C24.8794314 137.23504412 24.4106659 139.88327422 23.9418335 142.53151035 C23.38171775 145.689661 22.81559857 148.84673366 22.25 152.00390625 C22.03956055 153.19230606 21.82912109 154.38070587 21.61230469 155.6051178 C21.41540039 156.69392746 21.21849609 157.78273712 21.015625 158.90454102 C20.84321289 159.86699234 20.67080078 160.82944366 20.49316406 161.82106018 C20 164 20 164 19 165 C17.49581261 165.09311889 15.98728644 165.11746028 14.48022461 165.11352539 C13.03884377 165.11341209 13.03884377 165.11341209 11.56834412 165.11329651 C10.523564 165.10813522 9.47878387 165.10297394 8.40234375 165.09765625 C6.80635094 165.09553383 6.80635094 165.09553383 5.17811584 165.09336853 C1.76454917 165.08775064 -1.648953 165.07519511 -5.0625 165.0625 C-7.37044176 165.05748731 -9.67838455 165.052924 -11.98632812 165.04882812 C-17.65757499 165.03777539 -23.32878084 165.02062367 -29 165 C-28.22601289 156.88410972 -26.83689291 148.89669696 -25.42382812 140.87329102 C-25.15906627 139.35802669 -24.89454128 137.84272096 -24.63023376 136.32737732 C-23.91593294 132.23653436 -23.1981092 128.14631711 -22.47945213 124.05623746 C-21.87934285 120.63885602 -21.28101397 117.22116387 -20.68269205 113.80346912 C-19.2722453 105.74687606 -17.8589823 97.69078063 -16.44384766 89.63500977 C-14.98321428 81.31999558 -13.52691748 73.00423029 -12.07279825 64.68807465 C-10.82326887 57.54271867 -9.57130095 50.39779305 -8.31730795 43.25321907 C-7.5686827 38.98789427 -6.8209423 34.7224193 -6.07545471 30.45654488 C-5.37568163 26.45299539 -4.672863 22.44999254 -3.96765327 18.44739723 C-3.70896218 16.97615805 -3.45135233 15.5047283 -3.19488335 14.03310013 C-2.8456762 12.03035237 -2.49223391 10.02834442 -2.1385498 8.02638245 C-1.8432198 6.34320844 -1.8432198 6.34320844 -1.54192352 4.62603092 C-1 2 -1 2 0 0 Z " fill="#000000" transform="translate(46,35)"/>
<path d="M0 0 C9.55652861 8.02127401 16.06348185 18.1401598 17.34570312 30.80493164 C18.31273845 49.5207531 14.3255356 66.55341793 1.6875 81 C0.18542245 82.55994653 -1.33429982 84.10318756 -2.875 85.625 C-3.47699219 86.24890625 -4.07898438 86.8728125 -4.69921875 87.515625 C-19.20762704 101.48901606 -40.89844471 107.01009147 -60.52856445 106.65429688 C-77.41563395 105.97556485 -92.97230419 100.63105949 -104.83203125 88.18359375 C-114.15120144 76.51235766 -116.10698311 63.08110877 -114.875 48.625 C-112.78808006 33.21498543 -105.91095244 20.54814883 -94.875 9.625 C-93.87919922 8.57892578 -93.87919922 8.57892578 -92.86328125 7.51171875 C-70.1734512 -14.74592406 -25.67302471 -19.11547416 0 0 Z M-65.875 30.625 C-72.22324852 40.74560019 -75.41698417 50.76240719 -72.875 62.625 C-70.05224357 68.16970013 -66.48013261 71.5308443 -60.75 73.9375 C-51.59786193 75.56126643 -43.55964299 73.88360382 -35.875 68.625 C-28.48767959 62.38398793 -25.4820583 53.96413128 -23.875 44.625 C-23.39073981 37.24003209 -24.40544602 31.6285116 -29.1875 25.8125 C-40.70637321 16.43667297 -56.57894526 19.52844623 -65.875 30.625 Z " fill="#000000" transform="translate(462.875,97.375)"/>
<path d="M0 0 C0.75796875 0.42023438 1.5159375 0.84046875 2.296875 1.2734375 C12.85247445 7.68472441 18.39567136 17.52675456 21.625 29.2734375 C22.18004093 33.30904756 22.14389375 37.30654617 22.125 41.375 C22.12886719 42.2 22.13273438 43.025 22.13671875 43.875 C22.11606965 56.88393035 22.11606965 56.88393035 20 59 C17.35348657 59.12509834 14.73177781 59.18605995 12.08374023 59.20532227 C10.83994095 59.22017166 10.83994095 59.22017166 9.5710144 59.23532104 C6.81690371 59.2670312 4.06277574 59.29173088 1.30859375 59.31640625 C-0.59570273 59.33696757 -2.49999455 59.35796382 -4.40428162 59.37937927 C-9.42662806 59.43468485 -14.44901627 59.48405656 -19.47143555 59.53222656 C-24.59232315 59.58237979 -29.7131498 59.63809803 -34.83398438 59.69335938 C-44.8892709 59.80104467 -54.94461025 59.90246645 -65 60 C-65.03673828 61.86398438 -65.03673828 61.86398438 -65.07421875 63.765625 C-65.08799561 64.46461914 -65.10177246 65.16361328 -65.1159668 65.88378906 C-64.85727318 70.60453911 -62.97068835 74.02931165 -59.6875 77.3125 C-52.69346609 81.70410269 -44.76104449 82.17794552 -36.7265625 80.53515625 C-32.97124849 79.28091106 -30.33411716 77.4924831 -27.34765625 74.91943359 C-22.79549844 71.46563446 -19.26988608 71.20110799 -13.6875 71.4140625 C-12.83317383 71.42255219 -11.97884766 71.43104187 -11.09863281 71.43978882 C-8.39774823 71.47309833 -5.69996578 71.54832657 -3 71.625 C-1.15759552 71.655129 0.68485624 71.68249964 2.52734375 71.70703125 C7.01940543 71.7728148 11.50917878 71.87617221 16 72 C15.37625488 73.27477318 14.74933259 74.54799206 14.12109375 75.82055664 C13.77232178 76.52974747 13.4235498 77.23893829 13.06420898 77.96961975 C4.92382801 93.50046848 -11.067633 102.45529222 -27.0234375 108.0625 C-45.22265903 113.24803161 -65.84554417 111.93682289 -83 104 C-93.97549946 97.82722252 -100.76487095 89.51349749 -105.1875 77.875 C-108.99754527 59.70401487 -105.96728592 41.74202566 -96.7578125 25.66015625 C-93.65597486 20.96604195 -89.96290405 16.97615791 -86 13 C-85.31164062 12.2884375 -84.62328125 11.576875 -83.9140625 10.84375 C-63.69363514 -8.70015748 -24.73648601 -13.87886811 0 0 Z M-58 30 C-60.40203972 33.22065204 -60.40203972 33.22065204 -61 37 C-45.82 37 -30.64 37 -15 37 C-17.18568794 28.13662552 -17.18568794 28.13662552 -23 22 C-35.17323419 14.90733049 -49.10387009 20.27530897 -58 30 Z " fill="#000000" transform="translate(228,93)"/>
<path d="M0 0 C7.86682653 7.38428884 13.6039677 17.24033685 14.23095703 28.2434082 C14.23264893 29.46483521 14.23264893 29.46483521 14.234375 30.7109375 C14.23566406 31.61392578 14.23695313 32.51691406 14.23828125 33.44726562 C14.23441406 34.38376953 14.23054687 35.32027344 14.2265625 36.28515625 C14.23042969 37.21005859 14.23429688 38.13496094 14.23828125 39.08789062 C14.23634766 40.44817383 14.23634766 40.44817383 14.234375 41.8359375 C14.23324707 42.65360596 14.23211914 43.47127441 14.23095703 44.3137207 C14.07339513 47.55146917 13.55999114 50.76365577 13.1015625 53.97265625 C-15.2784375 53.97265625 -43.6584375 53.97265625 -72.8984375 53.97265625 C-72.94596528 64.22690319 -72.94596528 64.22690319 -67.5859375 72.34765625 C-60.36452735 76.7140903 -52.58229166 77.01645046 -44.3671875 75.5078125 C-40.31049311 74.33387183 -37.66542515 72.91258581 -34.71264648 69.89208984 C-30.53322275 66.22144555 -27.0752848 66.18233823 -21.68359375 66.38671875 C-20.39998207 66.39945328 -20.39998207 66.39945328 -19.09043884 66.41244507 C-16.37927912 66.44581271 -13.67118528 66.52105339 -10.9609375 66.59765625 C-9.1139755 66.62777768 -7.26696649 66.65514967 -5.41992188 66.6796875 C-0.91159398 66.74554851 3.59446602 66.8489482 8.1015625 66.97265625 C1.98462686 82.88599982 -11.45256383 92.50525172 -26.2734375 99.66015625 C-45.50974517 108.01559156 -68.13778424 108.10849727 -87.640625 100.51171875 C-99.18815152 95.05641246 -107.18676007 86.81746413 -112.171875 75.11328125 C-117.68840176 58.86028843 -113.68611296 39.86871568 -106.8359375 24.78515625 C-98.50281473 9.011108 -84.10236934 -2.52567752 -67.30078125 -8.25390625 C-45.64926976 -14.69146795 -18.2382196 -15.17703433 0 0 Z M-65.50390625 24.84765625 C-68.06843716 28.0757409 -68.06843716 28.0757409 -68.8984375 31.97265625 C-53.7184375 31.97265625 -38.5384375 31.97265625 -22.8984375 31.97265625 C-23.99264434 25.40741519 -25.49955969 22.24527733 -30.2734375 17.72265625 C-41.98381888 9.91573533 -56.85669121 14.74871897 -65.50390625 24.84765625 Z " fill="#000000" transform="translate(756.8984375,98.02734375)"/>
<path d="M0 0 C-1.63334053 4.8904699 -4.39809005 8.80448821 -7.3125 13 C-7.78623047 13.69867188 -8.25996094 14.39734375 -8.74804688 15.1171875 C-11.53608318 19.16003084 -14.40746808 22.64958771 -18 26 C-18.63164063 25.71125 -19.26328125 25.4225 -19.9140625 25.125 C-29.51117961 21.14233469 -39.1649791 20.28024928 -49 24 C-49 26.31 -49 28.62 -49 31 C-43.44560252 33.77719874 -38.11078398 35.51859378 -32.0625 36.875 C-24.05079556 38.72880178 -17.54105257 41.54974365 -11.5625 47.375 C-6.69118081 55.55881624 -5.74137366 63.31659655 -7.50390625 72.67578125 C-11.03975772 85.66750981 -18.3391882 94.97243664 -29.60546875 102.140625 C-47.17221933 111.76291876 -69.09310669 113.36578383 -88.3125 108.3125 C-94.79937438 106.25531993 -101.29024082 103.74984184 -107 100 C-108 97 -108 97 -107.05957031 94.65576172 C-106.57069336 93.75615723 -106.08181641 92.85655273 -105.578125 91.9296875 C-105.04703125 90.95128906 -104.5159375 89.97289062 -103.96875 88.96484375 C-103.4015625 87.94519531 -102.834375 86.92554688 -102.25 85.875 C-101.69828125 84.84761719 -101.1465625 83.82023437 -100.578125 82.76171875 C-96.38290937 75.12763646 -96.38290937 75.12763646 -93 74 C-90.94140625 74.70703125 -90.94140625 74.70703125 -88.5625 75.8125 C-78.5110384 80.01636744 -64.0708621 82.86361518 -53.7109375 78.66796875 C-50.78245746 77.1264964 -50.78245746 77.1264964 -49 74 C-48.92727438 71.44539786 -48.92727438 71.44539786 -50 69 C-55.27612368 64.86229305 -62.34095858 63.95966207 -68.72070312 62.42578125 C-76.99393188 60.31370783 -84.18557502 57.40680766 -89 50 C-93.23129595 41.04682307 -91.36388345 30.98666542 -88.26171875 21.94140625 C-86.42898632 17.66881332 -84.11104193 14.42290677 -81 11 C-80.54496094 10.41992188 -80.08992187 9.83984375 -79.62109375 9.2421875 C-61.8844255 -11.4120006 -22.63659525 -11.93565932 0 0 Z " fill="#000000" transform="translate(867,93)"/>
<path d="M0 0 C12.87 0 25.74 0 39 0 C34.1546412 32.81665891 28.9693627 65.57447014 23.71673977 98.32766199 C22.78973083 104.10932698 21.86552192 109.89143706 20.94194096 115.6736505 C19.93119497 122.0011181 18.91847976 128.32826904 17.90488625 134.65528107 C17.4780125 137.3201483 17.05184145 139.98512647 16.62625694 142.65019989 C16.03729006 146.33576016 15.44608091 150.02095371 14.85424805 153.70605469 C14.68025482 154.7976741 14.5062616 155.88929352 14.32699585 157.01399231 C14.16600906 158.01345383 14.00502228 159.01291534 13.8391571 160.04266357 C13.63099885 161.34189318 13.63099885 161.34189318 13.41863537 162.66736984 C13.03651347 164.79654748 12.52465196 166.90139216 12 169 C-0.54 169 -13.08 169 -26 169 C-24.875 155.5 -24.875 155.5 -23.9306488 149.59661865 C-23.82770557 148.94524783 -23.72476234 148.29387702 -23.61869961 147.62276769 C-23.28050936 145.4896819 -22.93607744 143.35765696 -22.59155273 141.22558594 C-22.34472079 139.67709843 -22.09828228 138.12854816 -21.85220337 136.5799408 C-21.18890305 132.41278633 -20.52016279 128.2465218 -19.85037875 124.08040524 C-19.14916397 119.71274618 -18.45304368 115.34427524 -17.75636292 110.97589111 C-16.43895017 102.72025518 -15.11701381 94.4653504 -13.79341608 86.21070409 C-12.28565457 76.8060905 -10.78299045 67.40066467 -9.28073585 57.99517012 C-6.19279381 38.66254183 -3.0978388 19.33104509 0 0 Z " fill="#000000" transform="translate(319,55)"/>
<path d="M0 0 C1.60279192 0.00015914 3.20558896 0.00585476 4.80834961 0.01586914 C5.65038437 0.01728409 6.49241913 0.01869904 7.35997009 0.02015686 C10.06024671 0.02577276 12.76044163 0.03832791 15.46069336 0.05102539 C17.28686404 0.05603834 19.11303602 0.06060161 20.93920898 0.06469727 C25.42556984 0.07489818 29.91186535 0.09385796 34.39819336 0.11352539 C32.09531107 17.90396722 29.3190865 35.61201537 26.48257399 53.32318664 C25.84759426 57.29059924 25.21509992 61.25840828 24.58218384 65.22615051 C23.52330272 71.86166727 22.46233906 78.49684852 21.40014648 85.13183594 C20.17291026 92.79797729 18.94936925 100.46470192 17.72765768 108.13172549 C16.6729814 114.74986965 15.61633408 121.36769691 14.55802882 127.98526174 C13.92820954 131.92352665 13.29907434 135.86189749 12.67173386 139.80055809 C12.0846644 143.48569087 11.49512556 147.17042014 10.9036541 150.85484886 C10.58370983 152.8517028 10.26627074 154.84895762 9.94889832 156.84622192 C9.66305122 158.62217491 9.66305122 158.62217491 9.37142944 160.43400574 C9.20663778 161.46457187 9.04184612 162.495138 8.87206078 163.5569334 C8.39819336 166.11352539 8.39819336 166.11352539 7.39819336 169.11352539 C-5.14180664 169.11352539 -17.68180664 169.11352539 -30.60180664 169.11352539 C-29.4767677 155.61305811 -29.4767677 155.61305811 -28.53918457 149.75483704 C-28.38582807 148.78496449 -28.38582807 148.78496449 -28.22937346 147.79549855 C-27.89354371 145.67856106 -27.55144248 143.56269133 -27.20922852 141.44677734 C-26.96402899 139.90976291 -26.71921273 138.3726873 -26.4747467 136.83555603 C-25.81570474 132.69929267 -25.15106305 128.56394797 -24.48511696 124.42879128 C-23.78749231 120.09222568 -23.09435553 115.75494236 -22.4005127 111.41777039 C-21.23692773 104.14892779 -20.06962749 96.88068912 -18.90014648 89.61279297 C-17.5469808 81.20303266 -16.20003415 72.7922936 -14.85628653 64.38102371 C-13.56202926 56.28059211 -12.26317997 48.18090316 -10.96229553 40.08153343 C-10.40892655 36.63561552 -9.85722918 33.18943606 -9.30686951 29.74303627 C-8.66050593 25.69666761 -8.01015786 21.65095959 -7.35665703 17.60573769 C-7.11698705 16.11798693 -6.87872534 14.63000857 -6.64193916 13.14179611 C-6.31987395 11.11905784 -5.99231557 9.09719642 -5.66442871 7.07539368 C-5.48229073 5.94150365 -5.30015274 4.80761362 -5.11249542 3.63936329 C-4.32086089 -0.27601644 -4.22120132 0.1330481 0 0 Z " fill="#000000" transform="translate(276.601806640625,30.886474609375)"/>
<path d="M0 0 C4.45850936 0.79616239 5.90783917 1.93313458 8.5 5.625 C9.125 9.125 9.125 9.125 8.5 12.625 C5.90783917 16.31686542 4.45850936 17.45383761 0 18.25 C-4.45850936 17.45383761 -5.90783917 16.31686542 -8.5 12.625 C-9.125 9.125 -9.125 9.125 -8.5 5.625 C-5.90783917 1.93313458 -4.45850936 0.79616239 0 0 Z M-0.5 2.625 C-1.49 3.285 -2.48 3.945 -3.5 4.625 C-1.19 4.625 1.12 4.625 3.5 4.625 C2.18 3.965 0.86 3.305 -0.5 2.625 Z M-5.5 5.625 C-6.17958603 8.02219432 -6.17958603 8.02219432 -6.5 10.625 C-5.84 11.285 -5.18 11.945 -4.5 12.625 C-4.5 10.315 -4.5 8.005 -4.5 5.625 C-4.83 5.625 -5.16 5.625 -5.5 5.625 Z M4.5 5.625 C3.82041397 8.02219432 3.82041397 8.02219432 3.5 10.625 C4.16 11.285 4.82 11.945 5.5 12.625 C6.19159401 10.77774948 6.19159401 10.77774948 6.5 8.625 C5.84 7.635 5.18 6.645 4.5 5.625 Z M-0.5 6.625 C0.5 8.625 0.5 8.625 0.5 8.625 Z M-0.5 10.625 C-0.5 11.615 -0.5 12.605 -0.5 13.625 C-1.49 13.955 -2.48 14.285 -3.5 14.625 C-1.65274948 15.31659401 -1.65274948 15.31659401 0.5 15.625 C1.49 14.965 2.48 14.305 3.5 13.625 C2.51 13.625 1.52 13.625 0.5 13.625 C0.17 12.635 -0.16 11.645 -0.5 10.625 Z " fill="#000000" transform="translate(861.5,188.375)"/>
</svg>
